<svg width="16" height="16" viewBox="0 0 16 16" fill="none" xmlns="http://www.w3.org/2000/svg">
<path fill-rule="evenodd" clip-rule="evenodd" d="M7.99033 0L3.02055 5.01855L4.93304 6.94981L9.90283 1.93126L7.99033 0ZM0 8.06678L1.9125 6.13552L3.82499 8.06678L1.9125 9.99805L0 8.06678ZM8 6.13552L6.0875 8.06678L8 10L9.9125 8.06678L8 6.13552ZM14.0875 6.13552L12.175 8.06678L14.0875 9.99805L16 8.06678L14.0875 6.13552Z" fill="#F5B638"/>
<path fill-rule="evenodd" clip-rule="evenodd" d="M6.08932 1.91203L11.0796 6.88062L13 4.96858L8.00971 0L6.08932 1.91203ZM9.91068 14.088L4.92039 9.11938L3 11.0314L7.99029 16L9.91068 14.088Z" fill="#F5B638"/>
<path d="M13 10.9452L7.94521 16L6 14.0548L11.0548 9L13 10.9452Z" fill="#F5B638"/>
</svg>
