<svg width="10" height="15" viewBox="0 0 10 15" fill="none" xmlns="http://www.w3.org/2000/svg">
<path d="M6 4.6159C6 2.46282 5.01949 0.610086 4.27392 0.00747481C4.27097 0.00557782 4.21725 -0.026671 4.22198 0.0593259L4.2208 0.0624876C4.15881 4.22006 2.17477 5.34688 1.08446 6.86573C-1.43322 10.3688 0.907368 14.2109 3.29164 14.9204C4.62575 15.3175 2.9835 14.2172 2.77217 11.894C2.51656 9.08522 6 6.94161 6 4.6159Z" fill="#1D2140"/>
<path d="M7.93939 6.01046C7.92158 5.99905 7.89522 5.99144 7.87741 6.01807C7.82755 6.54293 7.22489 7.6662 6.46125 8.69565C3.87041 12.1922 5.34713 13.8771 6.17631 14.7823C6.65928 15.3085 6.17631 14.7823 7.38232 14.2454C7.47636 14.2036 9.7331 13.0778 9.97743 10.5137C10.2132 8.03006 8.53705 6.4656 7.9401 6.01046H7.93939Z" fill="#54A9DB"/>
</svg>
