<svg width="15" height="13" viewBox="0 0 15 13" fill="none" xmlns="http://www.w3.org/2000/svg">
<path d="M11.2187 4.01459C10.9352 3.85611 10.5897 3.85611 10.3061 4.01459L8.21238 5.22899L6.78978 6.02099L4.69614 7.23539C4.41254 7.39373 4.06713 7.39373 3.78354 7.23539L2.11926 6.28499C1.84386 6.12706 1.67095 5.83676 1.66326 5.51939V3.64499C1.65943 3.32441 1.83555 3.02872 2.11926 2.87939L3.75666 1.95539C4.04025 1.79705 4.38566 1.79705 4.66926 1.95539L6.30666 2.87939C6.58205 3.03731 6.75496 3.32762 6.76266 3.64499V4.85939L8.18526 4.04099V2.82659C8.18908 2.50601 8.01296 2.21032 7.72926 2.06099L4.69614 0.318708C4.41254 0.160366 4.06713 0.160366 3.78354 0.318708L0.696295 2.06111C0.412631 2.21042 0.23652 2.50605 0.240295 2.82659V6.33779C0.236474 6.65837 0.412592 6.95406 0.696295 7.10339L3.78318 8.84579C4.06677 9.00413 4.41218 9.00413 4.69578 8.84579L6.78942 7.65779L8.21202 6.83939L10.3058 5.65139C10.5893 5.49291 10.9348 5.49291 11.2184 5.65139L12.8558 6.57539C13.1312 6.73333 13.3041 7.02362 13.3118 7.34099V9.21539C13.3156 9.53597 13.1395 9.83166 12.8558 9.98099L11.2184 10.9314C10.9348 11.0897 10.5894 11.0897 10.3058 10.9314L8.66838 10.0074C8.39299 9.84944 8.22009 9.55915 8.21238 9.24179V8.02727L6.78978 8.84567V10.0601C6.78595 10.3806 6.96207 10.6763 7.24578 10.8257L10.3327 12.5681C10.6163 12.7264 10.9617 12.7264 11.2453 12.5681L14.3321 10.8257C14.6075 10.6677 14.7804 10.3774 14.7881 10.0601V6.54899C14.792 6.22841 14.6158 5.93272 14.3321 5.78339L11.2187 4.01459Z" fill="#8247E5"/>
</svg>
